<svg class="m-image" style="width: 722.667px; height: 85.3333px;" viewBox="0 0 1084 128" xmlns="http://www.w3.org/2000/svg" xmlns:xlink="http://www.w3.org/1999/xlink">
  <rect x="0" y="111" width="16" height="16" style="fill:#9b0f01"/>
  <rect x="20" y="119" width="8" height="8" style="fill:#d02f05"/>
  <rect x="32" y="119" width="8" height="8" style="fill:#20c7df"/>
  <rect x="44" y="119" width="8" height="8" style="fill:#c6f034"/>
  <rect x="56" y="123" width="4" height="4" style="fill:#19e3b9"/>
  <rect x="64" y="95" width="32" height="32" style="fill:#1fc9dd"/>
  <rect x="100" y="119" width="8" height="8" style="fill:#a9fb39"/>
  <rect x="112" y="95" width="32" height="32" style="fill:#4669e0"/>
  <rect x="148" y="123" width="4" height="4" style="fill:#3e3891"/>
  <rect x="156" y="-1" width="128" height="128" style="fill:#e9d539"/>
  <rect x="288" y="95" width="32" height="32" style="fill:#3f3b97"/>
  <rect x="324" y="123" width="4" height="4" style="fill:#96fe44"/>
  <rect x="332" y="95" width="32" height="32" style="fill:#fc8725"/>
  <rect x="368" y="119" width="8" height="8" style="fill:#4680f6"/>
  <rect x="380" y="123" width="4" height="4" style="fill:#25c0e7"/>
  <rect x="388" y="123" width="4" height="4" style="fill:#2eb4f2"/>
  <rect x="396" y="111" width="16" height="16" style="fill:#4771e9"/>
  <rect x="416" y="95" width="32" height="32" style="fill:#3b2f80"/>
  <rect x="452" y="63" width="64" height="64" style="fill:#7dff56"/>
  <rect x="520" y="63" width="64" height="64" style="fill:#1fc9dd"/>
  <rect x="588" y="123" width="4" height="4" style="fill:#3f3b97"/>
  <rect x="596" y="119" width="8" height="8" style="fill:#30123b"/>
  <rect x="608" y="123" width="4" height="4" style="fill:#4040a2"/>
  <rect x="616" y="63" width="64" height="64" style="fill:#1ecbda"/>
  <rect x="684" y="-1" width="128" height="128" style="fill:#3c3286"/>
  <rect x="816" y="111" width="16" height="16" style="fill:#fdac34"/>
  <rect x="836" y="63" width="64" height="64" style="fill:#d83706"/>
  <rect x="904" y="119" width="8" height="8" style="fill:#3e9bfe"/>
  <rect x="916" y="123" width="4" height="4" style="fill:#2ff19b"/>
  <rect x="924" y="63" width="64" height="64" style="fill:#3f3b97"/>
  <rect x="992" y="111" width="16" height="16" style="fill:#455ed3"/>
  <rect x="1012" y="63" width="64" height="64" style="fill:#80ff53"/>
  <rect x="1080" y="123" width="4" height="4" style="fill:#df3f08"/>
</svg>
