<svg class="m-image" style="width: 349.333px; height: 85.3333px;" viewBox="0 0 524 128" xmlns="http://www.w3.org/2000/svg" xmlns:xlink="http://www.w3.org/1999/xlink">
  <rect x="492" y="48" width="16" height="16" style="fill:#9b0f01"/>
  <rect x="460" y="24" width="8" height="8" style="fill:#d02f05"/>
  <rect x="468" y="24" width="8" height="8" style="fill:#20c7df"/>
  <rect x="460" y="16" width="8" height="8" style="fill:#c6f034"/>
  <rect x="484" y="20" width="4" height="4" style="fill:#19e3b9"/>
  <rect x="396" y="32" width="32" height="32" style="fill:#1fc9dd"/>
  <rect x="468" y="16" width="8" height="8" style="fill:#a9fb39"/>
  <rect x="428" y="32" width="32" height="32" style="fill:#4669e0"/>
  <rect x="488" y="20" width="4" height="4" style="fill:#3e3891"/>
  <rect x="0" y="0" width="128" height="128" style="fill:#e9d539"/>
  <rect x="396" y="0" width="32" height="32" style="fill:#3f3b97"/>
  <rect x="484" y="16" width="4" height="4" style="fill:#96fe44"/>
  <rect x="428" y="0" width="32" height="32" style="fill:#fc8725"/>
  <rect x="476" y="24" width="8" height="8" style="fill:#4680f6"/>
  <rect x="488" y="16" width="4" height="4" style="fill:#25c0e7"/>
  <rect x="460" y="12" width="4" height="4" style="fill:#2eb4f2"/>
  <rect x="508" y="48" width="16" height="16" style="fill:#4771e9"/>
  <rect x="460" y="32" width="32" height="32" style="fill:#3b2f80"/>
  <rect x="264" y="64" width="64" height="64" style="fill:#7dff56"/>
  <rect x="328" y="64" width="64" height="64" style="fill:#1fc9dd"/>
  <rect x="464" y="12" width="4" height="4" style="fill:#3f3b97"/>
  <rect x="484" y="24" width="8" height="8" style="fill:#30123b"/>
  <rect x="460" y="8" width="4" height="4" style="fill:#4040a2"/>
  <rect x="264" y="0" width="64" height="64" style="fill:#1ecbda"/>
  <rect x="132" y="0" width="128" height="128" style="fill:#3c3286"/>
  <rect x="492" y="32" width="16" height="16" style="fill:#fdac34"/>
  <rect x="328" y="0" width="64" height="64" style="fill:#d83706"/>
  <rect x="476" y="16" width="8" height="8" style="fill:#3e9bfe"/>
  <rect x="464" y="8" width="4" height="4" style="fill:#2ff19b"/>
  <rect x="396" y="64" width="64" height="64" style="fill:#3f3b97"/>
  <rect x="508" y="32" width="16" height="16" style="fill:#455ed3"/>
  <rect x="460" y="64" width="64" height="64" style="fill:#80ff53"/>
  <rect x="468" y="12" width="4" height="4" style="fill:#df3f08"/>
</svg>
