<?xml version="1.0" encoding="UTF-8"?>
<svg width="430" height="30" version="1.1" viewBox="0 0 113.77 7.9375" xmlns="http://www.w3.org/2000/svg" xmlns:cc="http://creativecommons.org/ns#" xmlns:dc="http://purl.org/dc/elements/1.1/" xmlns:rdf="http://www.w3.org/1999/02/22-rdf-syntax-ns#">
 <metadata>
  <rdf:RDF>
   <cc:Work rdf:about="">
    <dc:format>image/svg+xml</dc:format>
    <dc:type rdf:resource="http://purl.org/dc/dcmitype/StillImage"/>
    <dc:title/>
   </cc:Work>
  </rdf:RDF>
 </metadata>
 <g transform="translate(-38.103 -2.9851)" stroke="#2f363f" stroke-width=".13229">
  <g fill-rule="evenodd">
   <rect x="101.6" y="5.631" width="2.6458" height="2.6458" fill="#2f83cc" stop-color="#000000" style="font-variation-settings:normal"/>
   <rect x="40.749" y="5.631" width="7.9375" height="2.6458" fill="#c7cf2f" stop-color="#000000" style="font-variation-settings:normal"/>
   <rect x="104.25" y="5.631" width="2.6458" height="2.6458" fill="#2f83cc" stop-color="#000000" style="font-variation-settings:normal"/>
  </g>
  <circle cx="89.697" cy="6.9539" r=".4072" fill="#c7cf2f" stop-color="#000000" style="font-variation-settings:normal"/>
  <circle cx="91.02" cy="6.9539" r=".4072" fill="#3bd267" stop-color="#000000" style="font-variation-settings:normal"/>
  <circle cx="108.22" cy="6.9539" r=".4072" fill="#2f83cc" stop-color="#000000" style="font-variation-settings:normal"/>
  <g fill-rule="evenodd">
   <rect x="98.958" y="5.631" width="2.6458" height="2.6458" fill="#2f83cc" stop-color="#000000" style="font-variation-settings:normal"/>
   <rect x="125.42" y="5.631" width="2.6458" height="2.6458" fill="#747474" stop-color="#000000" style="font-variation-settings:normal"/>
   <rect x="48.687" y="5.631" width="7.9375" height="2.6458" fill="#3bd267" stop-color="#000000" style="font-variation-settings:normal"/>
   <rect x="56.624" y="5.631" width="7.9375" height="2.6458" fill="#c7cf2f" stop-color="#000000" style="font-variation-settings:normal"/>
   <rect x="64.562" y="5.631" width="7.9375" height="2.6458" fill="#3bd267" stop-color="#000000" style="font-variation-settings:normal"/>
   <rect x="72.499" y="5.631" width="7.9375" height="2.6458" fill="#c7cf2f" stop-color="#000000" style="font-variation-settings:normal"/>
   <rect x="80.437" y="5.631" width="7.9375" height="2.6458" fill="#3bd267" stop-color="#000000" style="font-variation-settings:normal"/>
  </g>
  <g fill="#747474">
   <g fill-rule="evenodd">
    <rect x="128.06" y="5.631" width="2.6458" height="2.6458" stop-color="#000000" style="font-variation-settings:normal"/>
    <rect x="130.71" y="5.631" width="2.6458" height="2.6458" stop-color="#000000" style="font-variation-settings:normal"/>
    <rect x="133.35" y="5.631" width="2.6458" height="2.6458" stop-color="#000000" style="font-variation-settings:normal"/>
    <rect x="136" y="5.631" width="2.6458" height="2.6458" stop-color="#000000" style="font-variation-settings:normal"/>
    <rect x="143.94" y="5.631" width="2.6458" height="2.6458" stop-color="#000000" style="font-variation-settings:normal"/>
    <rect x="146.58" y="5.631" width="2.6458" height="2.6458" stop-color="#000000" style="font-variation-settings:normal"/>
    <rect x="141.29" y="5.631" width="2.6458" height="2.6458" stop-color="#000000" style="font-variation-settings:normal"/>
    <rect x="138.65" y="5.631" width="2.6458" height="2.6458" stop-color="#000000" style="font-variation-settings:normal"/>
    <rect x="117.48" y="5.631" width="2.6458" height="2.6458" stop-color="#000000" style="font-variation-settings:normal"/>
    <rect x="120.12" y="5.631" width="2.6458" height="2.6458" stop-color="#000000" style="font-variation-settings:normal"/>
    <rect x="122.77" y="5.631" width="2.6458" height="2.6458" stop-color="#000000" style="font-variation-settings:normal"/>
   </g>
   <circle cx="116.16" cy="6.9539" r=".4072" stop-color="#000000" style="font-variation-settings:normal"/>
   <circle cx="114.83" cy="6.9539" r=".4072" stop-color="#000000" style="font-variation-settings:normal"/>
   <circle cx="113.51" cy="6.9539" r=".4072" stop-color="#000000" style="font-variation-settings:normal"/>
  </g>
  <circle cx="93.666" cy="6.9539" r=".4072" fill="#3bd267" stop-color="#000000" style="font-variation-settings:normal"/>
  <circle cx="92.343" cy="6.9539" r=".4072" fill="#c7cf2f" stop-color="#000000" style="font-variation-settings:normal"/>
  <circle cx="97.635" cy="6.9539" r=".4072" fill="#2f83cc" stop-color="#000000" style="font-variation-settings:normal"/>
  <circle cx="109.54" cy="6.9539" r=".4072" fill="#2f83cc" stop-color="#000000" style="font-variation-settings:normal"/>
 </g>
</svg>
