<?xml version="1.0" encoding="UTF-8"?>
<svg width="430" height="30" version="1.1" viewBox="0 0 113.77 7.9375" xmlns="http://www.w3.org/2000/svg" xmlns:cc="http://creativecommons.org/ns#" xmlns:dc="http://purl.org/dc/elements/1.1/" xmlns:rdf="http://www.w3.org/1999/02/22-rdf-syntax-ns#">
 <metadata>
  <rdf:RDF>
   <cc:Work rdf:about="">
    <dc:format>image/svg+xml</dc:format>
    <dc:type rdf:resource="http://purl.org/dc/dcmitype/StillImage"/>
    <dc:title/>
   </cc:Work>
  </rdf:RDF>
 </metadata>
 <g transform="translate(-38.103 -2.9851)" style="display: none;">
  <rect x="38.103" y="2.9851" width="113.77" height="7.9375" fill="#2f363f" stop-color="#000000"/>
 </g>
 <g transform="translate(-38.103 -2.9851)" stroke="#2f363f" stroke-width=".13229">
  <g>
   <g fill-rule="evenodd">
    <rect x="56.624" y="5.631" width="2.6458" height="2.6458" fill="#2f83cc" stop-color="#000000" style="font-variation-settings:normal"/>
    <rect x="40.749" y="5.631" width="7.9375" height="2.6458" fill="#c7cf2f" stop-color="#000000" style="font-variation-settings:normal"/>
    <rect x="93.666" y="5.631" width="2.6458" height="2.6458" fill="#2f83cc" stop-color="#000000" style="font-variation-settings:normal"/>
   </g>
   <circle cx="97.635" cy="6.9539" r=".4072" fill="#c7cf2f" stop-color="#000000" style="font-variation-settings:normal"/>
   <circle cx="98.958" cy="6.9539" r=".4072" fill="#3bd267" stop-color="#000000" style="font-variation-settings:normal"/>
   <circle cx="100.28" cy="6.9539" r=".4072" fill="#2f83cc" stop-color="#000000" style="font-variation-settings:normal"/>
   <g fill-rule="evenodd">
    <rect x="75.145" y="5.631" width="2.6458" height="2.6458" fill="#2f83cc" stop-color="#000000" style="font-variation-settings:normal"/>
    <rect x="120.12" y="5.631" width="2.6458" height="2.6458" fill="#747474" stop-color="#000000" style="font-variation-settings:normal"/>
    <rect x="48.687" y="5.631" width="7.9375" height="2.6458" fill="#3bd267" stop-color="#000000" style="font-variation-settings:normal"/>
    <rect x="59.27" y="5.631" width="7.9375" height="2.6458" fill="#c7cf2f" stop-color="#000000" style="font-variation-settings:normal"/>
    <rect x="67.208" y="5.631" width="7.9375" height="2.6458" fill="#3bd267" stop-color="#000000" style="font-variation-settings:normal"/>
    <rect x="77.791" y="5.631" width="7.9375" height="2.6458" fill="#c7cf2f" stop-color="#000000" style="font-variation-settings:normal"/>
    <rect x="85.728" y="5.631" width="7.9375" height="2.6458" fill="#3bd267" stop-color="#000000" style="font-variation-settings:normal"/>
   </g>
  </g>
  <g fill="#747474" fill-rule="evenodd">
   <rect x="122.77" y="5.631" width="2.6458" height="2.6458" stop-color="#000000" style="font-variation-settings:normal"/>
   <rect x="125.42" y="5.631" width="2.6458" height="2.6458" stop-color="#000000" style="font-variation-settings:normal"/>
   <rect x="132.03" y="5.631" width="2.6458" height="2.6458" stop-color="#000000" style="font-variation-settings:normal"/>
   <rect x="134.68" y="5.631" width="2.6458" height="2.6458" stop-color="#000000" style="font-variation-settings:normal"/>
  </g>
  <rect transform="rotate(90)" x="5.6309" y="-120.12" width="2.6458" height="1.3229" fill="#a5c9ea" fill-rule="evenodd"/>
  <rect transform="rotate(90)" x="5.6309" y="-129.38" width="2.6458" height="1.3229" fill="#a5c9ea" fill-rule="evenodd"/>
  <g fill="#747474" fill-rule="evenodd">
   <rect x="129.38" y="5.631" width="2.6458" height="2.6458" stop-color="#000000" style="font-variation-settings:normal"/>
   <rect x="143.94" y="5.631" width="2.6458" height="2.6458" stop-color="#000000" style="font-variation-settings:normal"/>
   <rect x="146.58" y="5.631" width="2.6458" height="2.6458" stop-color="#000000" style="font-variation-settings:normal"/>
  </g>
  <rect transform="rotate(90)" x="5.6309" y="-141.29" width="2.6458" height="1.3229" fill="#a5c9ea" fill-rule="evenodd"/>
  <g fill="#747474" fill-rule="evenodd">
   <rect x="141.29" y="5.631" width="2.6458" height="2.6458" stop-color="#000000" style="font-variation-settings:normal"/>
   <rect x="137.32" y="5.631" width="2.6458" height="2.6458" stop-color="#000000" style="font-variation-settings:normal"/>
   <rect x="110.86" y="5.631" width="2.6458" height="2.6458" stop-color="#000000" style="font-variation-settings:normal"/>
   <rect x="113.51" y="5.631" width="2.6458" height="2.6458" stop-color="#000000" style="font-variation-settings:normal"/>
   <rect x="116.16" y="5.631" width="2.6458" height="2.6458" stop-color="#000000" style="font-variation-settings:normal"/>
  </g>
  <rect transform="rotate(90)" x="5.6309" y="-110.86" width="2.6458" height="1.3229" fill="#a5c9ea" fill-rule="evenodd"/>
  <g>
   <circle cx="108.22" cy="6.9539" r=".4072" fill="#747474" stop-color="#000000" style="font-variation-settings:normal"/>
   <circle cx="106.9" cy="6.9539" r=".4072" fill="#747474" stop-color="#000000" style="font-variation-settings:normal"/>
   <circle cx="105.57" cy="6.9539" r=".4072" fill="#a5c9ea" stop-color="#000000" style="font-variation-settings:normal"/>
  </g>
  <rect transform="rotate(90)" x="5.6309" y="-110.86" width="2.6458" height="1.3229" fill="#a5c9ea" fill-rule="evenodd"/>
 </g>
</svg>
